<?xml version="1.0" standalone="no"?>
<!DOCTYPE svg PUBLIC "-//W3C//DTD SVG 20010904//EN"
 "http://www.w3.org/TR/2001/REC-SVG-20010904/DTD/svg10.dtd">
<svg version="1.0" xmlns="http://www.w3.org/2000/svg"
 width="1024.000000pt" height="1024.000000pt" viewBox="0 0 1024.000000 1024.000000"
 preserveAspectRatio="xMidYMid meet">

<g transform="translate(0.000000,1024.000000) scale(0.100000,-0.100000)"
fill="#ffc53d" stroke="none">
<path d="M4275 7293 c-223 -16 -393 -50 -600 -118 -207 -68 -300 -123 -488
-288 -176 -155 -355 -433 -446 -691 -68 -192 -98 -348 -109 -571 l-7 -130 -54
78 c-30 43 -56 75 -58 73 -6 -6 22 -105 49 -176 12 -30 61 -138 108 -240 48
-102 104 -227 124 -278 32 -81 96 -291 96 -314 0 -4 -21 2 -47 14 -95 44 -189
112 -265 189 l-77 79 28 67 c80 197 67 288 -65 443 -25 30 -50 56 -54 58 -4 2
-22 -22 -39 -53 -25 -43 -46 -65 -99 -99 -84 -53 -157 -133 -179 -195 l-16
-47 -49 32 c-55 37 -97 51 -179 60 l-56 6 -19 -38 c-15 -31 -19 -61 -19 -144
l0 -105 -53 -49 c-72 -67 -91 -103 -108 -197 -13 -77 -17 -84 -74 -149 -33
-37 -60 -71 -60 -75 0 -3 14 -26 30 -50 17 -24 30 -55 30 -69 0 -13 11 -38 25
-54 14 -17 25 -35 25 -40 0 -14 25 -18 205 -38 142 -16 153 -18 203 -52 130
-85 286 -234 597 -567 234 -251 373 -387 500 -490 274 -222 677 -401 1090
-484 310 -63 459 -76 840 -76 329 1 492 14 723 60 110 22 113 25 62 42 -90 29
-298 136 -405 207 -379 253 -608 590 -609 896 0 177 62 310 229 489 59 63 49
63 -83 -1 -169 -83 -415 -262 -566 -412 -74 -74 -77 -76 -46 -30 74 109 219
267 335 364 260 218 544 347 890 407 105 18 493 25 546 11 l26 -8 6 133 c9
200 53 327 150 433 162 177 521 292 883 282 l115 -3 -7 25 c-18 71 -33 184
-34 252 -1 280 125 466 370 548 220 74 556 72 932 -5 296 -60 680 -201 939
-345 51 -27 93 -49 95 -48 8 8 -244 273 -354 372 -532 481 -1146 800 -1712
891 -653 104 -1264 33 -1909 -222 -342 -135 -639 -293 -919 -490 l-23 -16 3
141 c2 78 1 142 -2 142 -5 0 -84 -136 -114 -196 -8 -18 -63 -144 -121 -280
-59 -137 -125 -283 -147 -324 -129 -238 -460 -671 -720 -940 -93 -97 -90 -90
21 46 67 83 198 277 270 402 l42 73 -21 62 c-27 80 -36 186 -21 259 22 103 66
174 171 279 l97 96 -66 28 c-84 37 -171 121 -209 202 -37 80 -42 187 -13 280
63 208 286 441 551 576 58 30 126 60 153 68 26 7 47 17 47 21 0 4 -28 9 -62 9
-35 1 -90 2 -123 3 -33 1 -78 0 -100 -1z"/>
</g>
</svg>
